Chelovek.s.zheleznymi.kulakami.2012.1080p.WEB-DL-IRONCLUB




General
Complete name                    : The.Man.with.the.Iron.Fists.2012.WEB-DL.1080p.TTLT.mkv
Format                           : Matroska
File size                        : 3.04 GiB
Duration                         : 1h 35mn
Overall bit rate                 : 4 574 Kbps
Encoded date                     : UTC 2013-01-29 21:37:00
Writing application              : mkvmerge v3.0.0 ('Hang up your Hang-Ups' built on Dec 29 2009 00:24:14
Writing library                  : libebml v0.7.7 + libmatroska v0.8.1

Video
ID                               : 1
Format                           : AVC
Format/Info                      : Advanced Video Codec
Format profile                   : High@L4.0
Format settings, CABAC           : Yes
Format settings, ReFrames        : 5 frames
Codec ID                         : V_MPEG4/ISO/AVC
Duration                         : 1h 35mn
Bit rate                         : 4 098 Kbps
Width                            : 1 916 pixels
Height                           : 796 pixels
Display aspect ratio             : 2.407
Frame rate                       : 23.976 fps
Resolution                       : 24 bits
Colorimetry                      : 4:2:0
Scan type                        : Progressive
Bits/(Pixel*Frame)               : 0.112
Stream size                      : 2.72 GiB (90%)
Title                            : The Man With the Iron Fists (2012)
Language                         : English

Audio
ID                               : 2
Format                           : AC-3
Format/Info                      : Audio Coding 3
Codec ID                         : A_AC3
Duration                         : 1h 35mn
Bit rate mode                    : Constant
Bit rate                         : 384 Kbps
Channel(s)                       : 6 channels
Channel positions                : Front: L C R, Surround: L R, LFE
Sampling rate                    : 48.0 KHz
Stream size                      : 261 MiB (8%)
Title                            : DD 5.1 @ 384 kbps
Language                         : English

Text
ID                               : 3
Format                           : UTF-8
Codec ID                         : S_TEXT/UTF8
Codec ID/Info                    : UTF-8 Plain Text
Language                         : English